# xmcd CD database file
#
# Track frame offsets:
#	150
#	19877
#	40712
#	62967
#	83995
#	103650
#	122872
#	144710
#	166087
#	184900
#	206857
#	228422
#
# Disc length: 3310 seconds
#
# Revision: 0
# Processed by: cddbd v1.5.1PL0 Copyright (c) Steve Scherf et al.
# Submitted via: CDex 1.51
#
DISCID=ab0cec0c
DTITLE=Lance Ellis - Just Curious
DYEAR=2000
DGENRE=Jazz
TTITLE0=Lance Ellis - Just Curious - 01 - U Never Told Me
TTITLE1=Lance Ellis - Just Curious - 02 - I Mean It
TTITLE2=Lance Ellis - Just Curious - 03 - Taking A Chance
TTITLE3=Lance Ellis - Just Curious - 04 - Outside Mind
TTITLE4=Lance Ellis - Just Curious - 05 - Lance's Groove
TTITLE5=Lance Ellis - Just Curious - 06 - Why Keep Hanging On
TTITLE6=Lance Ellis - Just Curious - 07 - Millennium Bus Stop
TTITLE7=Lance Ellis - Just Curious - 08 - Just Curious
TTITLE8=Lance Ellis - Just Curious - 09 - Ya che' Koham
TTITLE9=Lance Ellis - Just Curious - 10 - I've Got Love
TTITLE10=Lance Ellis - Just Curious - 11 - Just Between Us
TTITLE11=Lance Ellis - Just Curious - 12 - Your Grace and Mercy
EXTD=YEAR: 2000
EXTT0=
EXTT1=
EXTT2=
EXTT3=
EXTT4=
EXTT5=
EXTT6=
EXTT7=
EXTT8=
EXTT9=
EXTT10=
EXTT11=
PLAYORDER=
